# xmcd CD database file
#
# Track frame offsets:
#	182
#	13670
#	24515
#	40052
#	51237
#	65207
#	81122
#	95300
#	107027
#	115535
#
# Disc length: 1685 seconds
#
# Revision: 4
# Processed by: cddbd v1.5.2PL0 Copyright (c) Steve Scherf et al.
# Submitted via: CDex 1.51
#
DISCID=7806930a
DTITLE=Boxcar Willie - King Of The Hoboes Volume. 2
DYEAR=1900
DGENRE=Country
TTITLE0=Lonesome Whistle
TTITLE1=The Day Elvis Died
TTITLE2=Wabash Cannonball
TTITLE3=Wreck Of The Old 97
TTITLE4=You Are My Sunshine
TTITLE5=Your Cheatin' Heart
TTITLE6=Boxcar Blues
TTITLE7=Country Music Nightmare
TTITLE8=Daddy Was A Railroad Man
TTITLE9=Freight Train Blues
EXTD=
EXTT0=
EXTT1=
EXTT2=
EXTT3=
EXTT4=
EXTT5=
EXTT6=
EXTT7=
EXTT8=
EXTT9=
PLAYORDER=
